<?xml version="1.0" encoding="UTF-8" standalone="no"?>
<svg viewBox="0 0 98.793 22.271" width="98.793px" xmlns="http://www.w3.org/2000/svg" version="1.1" height="22.271px">
 <path d="m25.348 10.648c0.93-0.469 1.448-1.229 1.45-2.32-0.002-2.07-1.374-2.754-3.409-2.754h-5.023l-0.001 11.109 5.169 0.001c1.934-0.001 3.777-0.968 3.774-3.225-0.003-1.38-0.66-2.423-1.96-2.811zm-4.637-3.177h2.201c0.833 0 1.617 0.218 1.613 1.278 0.004 0.932-0.611 1.319-1.435 1.326h-2.38l0.001-2.604zm2.514 7.317h-2.515v-3.053l2.561-0.001c0.998 0.001 1.688 0.457 1.688 1.59-0.001 1.154-0.807 1.464-1.734 1.464zm7.175-7.396v-1.818h-2.125l0.003 1.819 2.122-0.001zm0 1.244l-2.122 0.001-0.003 8.046 2.125 0.001v-8.048zm1.287 8.345c-0.003 0.602-0.395 0.717-0.825 0.716-0.177 0.001-0.329-0.017-0.462-0.065v1.823c0.225 0.033 0.462 0.063 0.686 0.061 2.138 0.003 2.72-0.778 2.724-2.428v-8.448h-2.125l0.002 8.341zm0.001-9.589l2.121 0.002v-1.82h-2.125l0.004 1.818zm7.083 1.029c-2.346 0-3.95 1.837-3.946 4.25 0 2.486 1.509 4.231 3.946 4.231 1.743 0.002 3.021-0.811 3.616-2.707l-1.87 0.005c-0.132 0.494-0.821 1.039-1.673 1.041-1.18-0.005-1.84-0.642-1.901-2.043h5.581c0.151-2.479-1.124-4.777-3.753-4.777zm-1.824 3.381c0.023-0.624 0.418-1.717 1.765-1.715 1.031-0.001 1.492 0.592 1.691 1.711l-3.456 0.004zm10.807-3.383c-0.896 0.002-1.826 0.437-2.362 1.339l-0.044-0.001v-1.121l-2.02 0.004v8.042h2.125l-0.002-4.211c0.004-1.64 0.494-2.308 1.645-2.308 0.988 0.002 1.361 0.651 1.361 1.979v4.541l2.121-0.002 0.004-4.948c0-1.991-0.567-3.314-2.828-3.314zm11.247 0.221h-2.513l-2.675 2.895v-5.961h-2.127l0.006 11.108 2.121 0.002v-2.77l0.82-0.822 2.126 3.59h2.568l-3.243-5.086 2.917-2.956zm3.883-0.219c-2.423 0.003-3.995 1.682-3.998 4.252 0.003 2.551 1.575 4.229 3.998 4.231 2.438-0.002 4.008-1.681 4.005-4.235 0.003-2.567-1.571-4.248-4.005-4.248zm0 6.815c-1.438 0.006-1.87-1.289-1.87-2.565 0.003-1.293 0.437-2.585 1.87-2.58 1.447-0.005 1.882 1.287 1.885 2.58 0 1.276-0.438 2.568-1.885 2.565zm6.953-5.105v-1.491h-2.022l0.003 8.042 2.122 0.002v-3.622c-0.004-1.42 0.54-2.586 2.092-2.586 0.256 0 0.568 0.031 0.763 0.078l0.002-2.054c-0.14-0.05-0.315-0.077-0.466-0.077-1.031-0.002-2.075 0.695-2.494 1.708zm3.809-2.116l0.004 0.625v1.477l-0.004 6.567 2.125-0.002-0.003-6.565h1.466v-1.48l-1.466-0.001-0.002-0.481c0.002-0.667 0.242-0.916 0.811-0.916 0.27-0.003 0.522 0.014 0.776 0.046v-1.649c-0.361-0.016-0.749-0.062-1.125-0.062-1.731 0-2.582 1.028-2.582 2.441zm-58.381 2.528c-0.679-1.418-1.725-2.233-3.262-2.233-2.496 0-3.74 2.074-3.74 4.404 0 2.209 1.673 4.178 3.73 4.178 3.048 0 3.618-2.355 3.669-2.623l-1.953-0.003c-0.365 0.664-0.873 0.991-1.595 0.991-1.066 0-1.973-0.914-1.92-2.119l5.568-0.004c0-0.273 0.004-0.521-0.059-1.002-0.06-0.493-0.224-1.156-0.438-1.589zm-5.036 1.208c0.035-0.788 0.466-1.849 1.798-1.851 1.085-0.001 1.705 0.842 1.707 1.852l-3.505-0.001zm-2.805 3.391v-9.581l-1.868-0.003-0.031 3.842c-0.198-0.325-0.973-1.03-2.285-1.028-1.755 0.003-3.24 1.568-3.24 4.447 0 1.99 1.187 4.133 3.282 4.133 1.126 0.002 1.815-0.609 2.188-1.099 0 0.365 0.019 0.462 0.044 0.833h1.923c-0.032-0.508-0.011-1.029-0.013-1.544zm-3.585 0.187c-1.478 0-1.896-1.488-1.896-2.654 0.005-1.101 0.359-2.651 1.896-2.651 1.342 0 1.792 1.547 1.794 2.649-0.002 1.103-0.449 2.656-1.794 2.656zm86.025-15.329l-8.973 5.567-0.003 11.139 8.976 5.564 8.929-5.536v-11.191l-8.929-5.543zm-0.79 19.865l-6.641-4.121 0.003-9.21 6.638-4.121v1.085c-1.427 0.211-3.295 1.895-3.295 4.191l-0.004 3.735-2.484 0.001v4.124h5.783v4.316zm1.538 0.015l0.004-6-5.785 0.006-0.002-0.798 2.491 0.001v-5.339c-0.003-1.372 1.029-2.702 2.684-2.702h0.609l0.003-2.658 6.634 4.116 0.002 9.261-6.64 4.113z"/>
</svg>
